<?xml version="1.0" encoding="utf-8"?>
<!-- Generator: Adobe Illustrator 28.4.1, SVG Export Plug-In . SVG Version: 6.00 Build 0)  -->
<svg version="1.1" id="Layer_1" xmlns="http://www.w3.org/2000/svg" xmlns:xlink="http://www.w3.org/1999/xlink" x="0px" y="0px"
	 viewBox="0 0 154 154" style="enable-background:new 0 0 154 154;" xml:space="preserve">
<style type="text/css">
	.st0{fill:#3158B7;}
	.st1{fill:#73E4FA;}
	.st2{fill:#3D7ECD;}
	.st3{fill:#4F91E0;}
	.st4{fill:#5BBFFC;}
	.st5{fill:#15337C;}
	.st6{fill:url(#SVGID_1_);}
	.st7{fill:url(#SVGID_00000170280116544556144820000016923472460577123510_);}
	.st8{fill:url(#SVGID_00000067214792468343412180000007322493380530385589_);}
	.st9{fill:#2E57AB;}
	.st10{fill:#2950B6;}
</style>
<g>
	<path class="st0" d="M50.9,18.5l-0.1-0.2c0.2-0.2,0.4-0.2,0.7-0.3c1.1-0.1,6.1-0.2,7,0c0.4,0.1,0.8,0.3,1.1,0.6
		c1,0.9,2.2,2.3,3.1,3.3c0.3,0.4,0.6,0.9,1,1.2c0.5,0.9,2.2,1.4,3.2,1.7c0.1,0,0.1,0,0.2,0c-1,0.9-1.8,2-2.8,2.9
		c1.1,2.8,4.9,19,5.6,19.8c0.2,0.1,0.2,0,0.4-0.1c-0.1,0.2-0.2,0.4-0.4,0.5l-0.2-0.3c-0.6,0-4.3,1.9-5.1,2.2c-0.7,0.3-1.3,0.4-2,0.7
		c-0.3-0.7-0.5-1.5-0.8-2.2c-1.3-3.2-2.5-6.5-3.6-9.8c-1.5-4.1-3.1-8.2-4.5-12.3c-0.7-1.9-1.4-3.8-2.1-5.7
		C51.4,20,51.3,19.1,50.9,18.5z"/>
	<path class="st1" d="M50.9,18.5l-0.1-0.2c0.2-0.2,0.4-0.2,0.7-0.3c1.1-0.1,6.1-0.2,7,0c0.4,0.1,0.8,0.3,1.1,0.6
		c1,0.9,2.2,2.3,3.1,3.3c0.3,0.4,0.6,0.9,1,1.2c0.5,0.9,2.2,1.4,3.2,1.7c0.1,0,0.1,0,0.2,0c-1,0.9-1.8,2-2.8,2.9
		c-0.6-0.5-1.3-1-1.9-1.4c-1.3-0.9-2.5-1.8-3.8-2.7L55,21.1C53.7,20.2,52.4,19.1,50.9,18.5z"/>
	<path class="st2" d="M72.7,2.5c0.7-0.4,1.5-0.7,2.2-1c0.6-0.3,1.3-0.7,1.9-1C77,0.4,77,0.4,77.2,0.4c-0.2,0.6,0,4.1,0,5
		c0,3.2-0.1,6.4,0,9.6c0,0.3,0,0.7,0.1,1c-0.1,2.5,0,5-0.1,7.4l-0.1,19.9c0,1.5,0,3,0,4.6c0,0.9,0.1,2.1-0.1,3c0-0.3-0.1-0.8,0-1.1
		c0,0.3-0.2,0.7-0.2,1c0,0.5,0.1,1,0,1.5c-0.3-0.3-0.5-0.4-0.7-0.8c-1.2-1.6-0.5-2.3-2.8-3.2c-0.6-0.2-2.4-1-2.9-0.8
		c-0.2,0.1-0.2,0.1-0.4,0.1c-0.7-0.8-4.5-17-5.6-19.8c1-0.9,1.8-2,2.8-2.9c-0.1,0-0.1,0-0.2,0c-1-0.3-2.7-0.8-3.2-1.7
		c0.9,0.3,1.8,0.4,2.7,0.4c1.1,0,1.9-0.1,2.7-0.9c0.5-0.5,0.8-1,1.3-1.5c0.6-0.6,1.3-1.3,1.7-2c0.6-1.1,0.4-5,0.4-6.5
		c-0.7-0.1-1.4-0.1-2.1-0.1c-0.8,0-1.6-0.2-2.1-0.8c-0.6-0.7-0.7-1.7-0.6-2.6c0.4-3.8,3.8-1.8,4.7-2.7C72.7,6.1,72.6,3.1,72.7,2.5z"
		/>
	<path class="st1" d="M89.4,69.3l0.1,0.2c0.4,1.2,0.6,2.4,1,3.6c0.6,2.1,1.1,4.2,1.7,6.3l6.1,21.6l4.1,14.6l1.2,4.1
		c0.2,0.7,0.5,1.4,0.6,2.1c0,0.2,0,0.2-0.1,0.3c-1.1-0.2-2.2-0.4-3.4-0.6c-2.2-0.4-4.3-0.8-6.4-1.2c-0.1-0.4-0.1-0.8-0.1-1.1
		c-0.1-0.8-0.3-1.6-0.4-2.4c-0.5-2.3-1.2-4.6-1.8-6.9l-5.5-23.3c-0.6-2.6-1.2-5.2-1.8-7.7c-0.5-2.2-1.2-4.3-1.6-6.5
		c0.3-0.1,0.6-0.2,0.9-0.3c0.8-0.4,1.6-0.7,2.4-1.1C87.4,70.4,88.4,69.6,89.4,69.3z"/>
	<path class="st1" d="M77.2,0.4c0.1,0,0.3,0.1,0.4,0.1c0.7,0.3,1.2,0.8,1.9,1.1c0.4,0.2,0.9,0.3,1.3,0.5c0.1,0.1,0.3,0.2,0.4,0.3
		c0.6,0.9-0.4,3.7,0.7,4.1c0.2,0.1,0.6,0,0.8,0c1.4-0.1,2.3-0.1,3.1,1.2c0.5,0.8,0.7,1.6,0.5,2.6c-0.2,0.9-0.8,1.8-1.6,2.3
		c-0.2,0.1-0.3,0.2-0.5,0.2c-0.2,0.1-0.3,0.1-0.5,0.2c-0.5,0.3-0.9,0.7-1.4,1.1c-0.2,0.1-0.6,0.3-0.7,0.5c0,0,0,0.1-0.1,0.2
		c-0.2,1.7-0.5,2.5,0.6,4.1c0.8,1,2.8,3.5,3.7,4.2c0.3,0.2,0.6,0.4,1,0.4c0.5,0,1,0,1.5,0c2.3-0.5,3.9-3.2,5.6-4.6
		c0.4-0.3,0.8-0.6,1.3-0.7c0.9-0.2,2-0.1,2.9-0.1c1.6,0,3.2,0,4.8,0.1c0.1,0.1,0.1,0,0.1,0.2c0.1,0.4-0.1,0.8-0.2,1.1
		c-0.7,2.1-1.6,4.2-2.4,6.3l-4.3,11.8c-1,2.9-2.1,5.9-3.2,8.8c-0.6,1.6-1.2,3.4-2,4.9c-0.2-0.2-0.4-0.3-0.7-0.4
		c-2.1-0.9-4.2-2.1-6.2-3.2c-0.1-0.1-0.2-0.2-0.4-0.2c-0.5,0.1-1.1,0.3-1.5,0.4c-1.1,0.3-3.4,0.8-4,1.8c-0.2,0.4-0.5,1.2-0.8,1.5
		c0-0.1-0.1-0.2-0.1-0.3c0.2-0.9,0.1-2,0.1-3c0-1.5,0-3,0-4.6l0.1-19.9c0-2.5-0.1-5,0.1-7.4c-0.1-0.3-0.1-0.6-0.1-1
		c-0.1-3.2,0-6.4,0-9.6C77.2,4.5,77,1,77.2,0.4z"/>
	<path d="M81.4,12.7c1,0,1.9,0.1,2.9,0.2c-0.2,0.1-0.3,0.1-0.5,0.2c-0.5,0.3-0.9,0.7-1.4,1.1c-0.2,0.1-0.6,0.3-0.7,0.5
		c0,0,0,0.1-0.1,0.2C81.5,14.1,81.4,13.4,81.4,12.7z"/>
	<path class="st3" d="M86.9,23.4c0.5,0,1,0,1.5,0c2.3-0.5,3.9-3.2,5.6-4.6c0.4-0.3,0.8-0.6,1.3-0.7c0.9-0.2,2-0.1,2.9-0.1
		c1.6,0,3.2,0,4.8,0.1c-0.1,0-0.2,0-0.3,0.1c-0.6,0.3-1.1,0.9-1.7,1.3c-2.8,1.9-5.6,3.9-8.4,5.9c-0.7,0.5-1.4,1.1-2.2,1.5
		c-0.7-1.2-1.3-2.1-2.4-2.9c-0.2-0.2-0.5-0.4-0.7-0.5C87.1,23.5,87.1,23.5,86.9,23.4C87,23.4,86.9,23.4,86.9,23.4z"/>
	<path class="st4" d="M77.3,16c1.2,0.7,2.7,2.7,3.7,3.7c1.2,1.3,2.6,2.4,3.9,3.6c1,0.9,3.7,4.1,4.7,4.5c0.1,0.7-4,15.8-4.6,17.6
		c-0.2,0.6-0.4,1.4-0.8,2c0,0.1-0.1,0.1-0.1,0.2c-0.1-0.1-0.2-0.2-0.4-0.2c-0.5,0.1-1.1,0.3-1.5,0.4c-1.1,0.3-3.4,0.8-4,1.8
		c-0.2,0.4-0.5,1.2-0.8,1.5c0-0.1-0.1-0.2-0.1-0.3c0.2-0.9,0.1-2,0.1-3c0-1.5,0-3,0-4.6l0.1-19.9C77.3,20.9,77.2,18.5,77.3,16z"/>
	<path class="st1" d="M77.1,50.8c0,0.1,0,0.2,0.1,0.3c0.4-0.3,0.6-1.1,0.8-1.5c0.6-1,2.9-1.5,4-1.8c0.5-0.1,1-0.4,1.5-0.4
		c0.2,0,0.2,0,0.4,0.2c2.1,1.1,4.1,2.3,6.2,3.2c0.3,0.1,0.5,0.2,0.7,0.4c-0.1,0.3-0.3,0.6-0.4,0.9c-0.3,0.7-0.5,1.4-0.7,2.2
		c1.1,0.1,2.2,0.1,3.3,0.1c2.7,0,6.2-0.4,8.3,1.7c0.3,0.3,0.7,0.7,0.9,1.1c0.3,1.3,0.2,2.8,0.1,4.1c0,0,0,0.1,0,0.1
		c-0.1,0.3-0.1,0.6-0.2,0.9c-0.4,0.8-1.6,1.6-2.3,2l-1.1,0c-1.3,0.2-2.7,0.1-4,0.1c-0.5,0.4-0.7,0.7-0.8,1.3c-0.9,0.4-1.8,0.7-2.7,1
		c-0.7,0.5-1.8,1.3-1.9,2.2c0,0.2,0,0.3,0.1,0.4l0,0.1c-1.1,0.3-2,1.1-3,1.6c-0.8,0.4-1.6,0.7-2.4,1.1c-0.3,0.2-0.6,0.3-0.9,0.3
		l-0.1,0l-0.2,0.1c-0.2-0.1-0.4-0.1-0.5-0.3C82.1,72,81.4,70.5,81,70c-1-1.3-2.2-1.9-3.8-2.1l-0.1,0c-0.3,0.4,0,1.6-0.2,2.2
		c-0.1-0.6,0.3-1.3-0.1-1.8c-0.2-0.1-0.3-0.1-0.5,0c-0.7,0.2-1.3,0.5-2,0.7l-0.1,0C74,69,73.8,69,73.5,69.1l-0.1,0
		c0.1-0.1,0.3-0.2,0.5-0.3c-0.2-0.1-0.4,0-0.7,0.1c-0.3,0.1-0.6,0.3-0.8,0.4c-0.6,0.2-1.3-0.2-1.6,0.6c-0.3,1,0,1.3-0.9,2l0,0L70,72
		c0,0,0.1,0,0.1,0c0.1,0,0.2,0,0.3,0.1c-2.1,0.3-4.1-2.1-5.9-3c0-0.3,0-0.5-0.2-0.7c-0.5-0.9-1.9-1.9-2.9-2.2
		c-0.3-0.1-0.7-0.2-1-0.3c-0.9-0.1-1.8-0.4-2.6-0.6c-0.7-0.1-1.4-0.2-2.1-0.3c0.1-0.2,0-0.5,0.1-0.8c-0.7,0-1.4-0.1-2-0.1
		c-0.7-0.4-1.4-1-1.8-1.7c-0.7-1-0.7-3.9-0.4-5.1c0.2-0.8,0.7-1.5,1.5-1.9c0.2-0.2,0.5-0.4,0.8-0.5c0.8-0.3,1.8-0.3,2.6-0.4
		c1-0.1,2.1-0.2,3.1-0.3c1.4-0.1,2.9,0,4.3-0.1c0,0,0,0,0-0.1c0.2-0.5-1.1-3-1.3-3.6c0.7-0.3,1.3-0.4,2-0.7c0.9-0.4,4.5-2.3,5.1-2.2
		L70,48c0.2-0.1,0.3-0.3,0.4-0.5c0.5-0.2,2.3,0.5,2.9,0.8c2.3,0.9,1.7,1.6,2.8,3.2c0.2,0.3,0.5,0.5,0.7,0.8c0.1-0.5,0-1,0-1.5
		c0-0.3,0.1-0.7,0.2-1C77,50,77.1,50.5,77.1,50.8z"/>
	<path class="st3" d="M53.2,55.5c0.2-0.2,0.5-0.4,0.8-0.5c0.8-0.3,1.8-0.3,2.6-0.4c1-0.1,2.1-0.2,3.1-0.3c1.4-0.1,2.9,0,4.3-0.1
		c1.7,0.2,3.4,0.1,5,0.1c0,0,0,0-0.1,0c-0.6,0.1-1.2,0.1-1.8,0.1c-1.9,0-3.7-0.1-5.6,0c-1.4,0-2.8,0.2-4.2,0.3c-0.4,0-1.8-0.1-2,0.3
		c-0.1,0.1-0.1,0.1-0.1,0.2c0.2,0.2,0.3,0.1,0.5,0.2c1,0,2,0,3,0c1.7,0,3.5,0.1,5.2,0.1c1.1,0,3.1-0.1,4.1,0.1c-2.3,0.2-4.7,0-7,0
		c-1.7,0-3.4,0-5.1,0C55.1,55.6,54.1,55.7,53.2,55.5z"/>
	<path class="st0" d="M78.4,49.8c0,0.1,0-0.6,0-0.5c0.4-0.3-0.6,0.7-0.4,0.3c0.6-1,2.9-1.5,4-1.8c0.5-0.1,1-0.4,1.5-0.4
		c0.2,0,0.2,0,0.4,0.2c2.1,1.1,4.1,2.3,6.2,3.2c0.3,0.1,0.5,0.2,0.7,0.4c-0.1,0.3-0.3,0.6-0.4,0.9c-0.3,0.7-0.5,1.4-0.7,2.2l-0.5,0
		c-4,0.2-8,0-12,0l-0.4-2c0.1-0.5,0-1,0-1.5c0-0.3,0.1-0.9,0.2-1.2C76.9,49.4,79,48.6,78.4,49.8z"/>
	<path class="st5" d="M70.4,47.5c0.5-0.2,2.3,0.5,2.9,0.8c2.3,0.9,0.9,0.2,2.8,1c0.4,0.1,0.8-0.1,1.1,0.1l0.1,4.8
		c-2.7,0-5.5,0.1-8.2,0.1c-1.7,0-3.4,0.1-5-0.1c0,0,0,0,0-0.1c0.2-0.5-1.1-3-1.3-3.6c0.7-0.3,1.3-0.4,2-0.7c0.9-0.4,4.5-2.3,5.1-2.2
		l0.1,0C70.2,47.6,70.3,47.7,70.4,47.5z"/>
	<path class="st4" d="M77.1,55.6c4.7,0,9.4-0.4,14,0.2c0.1,2.8,0,5.7,0,8.5l5,0c0.8,0,1.7-0.1,2.6,0c-1.3,0.2-2.7,0.1-4,0.1l-17.6,0
		c0-1,0-2,0-3C77.1,59.4,77.1,57.5,77.1,55.6z"/>
	<path class="st2" d="M53.9,64.2c-0.7-0.4-1.4-1-1.8-1.7c-0.7-1-0.7-3.9-0.4-5.1c0.2-0.8,0.7-1.5,1.5-1.9c0.9,0.1,1.9,0,2.8,0
		c1.7,0,3.4,0,5.1,0c2.3,0,4.7,0.1,7,0l9,0c0,1.9,0,3.9,0,5.8c0,1,0,2,0,3l17.6,0c-0.5,0.4-0.7,0.7-0.8,1.3c-0.9,0.4-1.8,0.7-2.7,1
		c-0.7,0.5-1.8,1.3-1.9,2.2c0,0.2,0,0.3,0.1,0.4l0,0.1c-1.1,0.3-2,1.1-3,1.6c-0.8,0.4-1.6,0.7-2.4,1.1c-0.3,0.2-0.6,0.3-0.9,0.3
		l-0.1,0l-0.2,0.1c-0.2-0.1-0.4-0.1-0.5-0.3C82.1,72,81.4,70.5,81,70c-1-1.3-2.2-1.9-3.8-2.1l-0.1,0c-0.3,0.4,0,1.6-0.2,2.2
		c-0.1-0.6,0.3-1.3-0.1-1.8c-0.2-0.1-0.3-0.1-0.5,0c-0.7,0.2-1.3,0.5-2,0.7l-0.1,0C74,69,73.8,69,73.5,69.1l-0.1,0
		c0.1-0.1,0.3-0.2,0.5-0.3c-0.2-0.1-0.4,0-0.7,0.1c-0.3,0.1-0.6,0.3-0.8,0.4c-0.6,0.2-1.3-0.2-1.6,0.6c-0.3,1,0,1.3-0.9,2l0,0L70,72
		c0,0,0.1,0,0.1,0c0.1,0,0.2,0,0.3,0.1c-2.1,0.3-4.1-2.1-5.9-3c0-0.3,0-0.5-0.2-0.7c-0.5-0.9-1.9-1.9-2.9-2.2
		c-0.3-0.1-0.7-0.2-1-0.3c-0.9-0.1-1.8-0.4-2.6-0.6c-0.7-0.1-1.4-0.2-2.1-0.3c0.1-0.2,0-0.5,0.1-0.8C55.3,64.3,54.6,64.3,53.9,64.2z
		"/>
	<path class="st0" d="M54,64.2c-0.7-0.4-1.4-1.1-1.8-1.7c-0.7-1-0.7-3.9-0.4-5.1c0.2-0.8,0.7-1.5,1.5-1.9c0.9,0.1,1.9,0,2.8,0
		c1.7,0,3.4,0,5.1,0c0.5,0.1,1.1,0.1,1.6,0.1c0,2.9-0.1,5.7-0.1,8.6c1.4,0,5.4-0.2,6.5,0.1c-1.3,0.1-2.7,0-4,0c-2.5,0-5,0-7.6,0
		c-0.5,0-1,0-1.5,0C55.3,64.3,54.6,64.3,54,64.2z"/>

		<linearGradient id="SVGID_1_" gradientUnits="userSpaceOnUse" x1="6416.5039" y1="-3752.4353" x2="6416.4839" y2="-3893.3613" gradientTransform="matrix(5.333333e-02 0 0 -5.333333e-02 -266.96 -135.732)">
		<stop  offset="0" style="stop-color:#122869"/>
		<stop  offset="1" style="stop-color:#2950B6"/>
	</linearGradient>
	<path class="st6" d="M57.5,64.3c2.5,0,5,0,7.6,0c1.3,0,2.7,0.1,4,0c2.7,0,5.4,0.1,8,0l17.6,0c-0.5,0.4-0.7,0.7-0.8,1.3
		c-0.9,0.4-1.8,0.7-2.7,1c-0.7,0.5-1.8,1.3-1.9,2.2c0,0.2,0,0.3,0.1,0.4l0,0.1c-1.1,0.3-2,1.1-3,1.6c-0.8,0.4-1.6,0.7-2.4,1.1
		c-0.3,0.2-0.6,0.3-0.9,0.3l-0.1,0l-0.2,0.1c-0.2-0.1-0.4-0.1-0.5-0.3C82.1,72,81.4,70.5,81,70c-1-1.3-2.2-1.9-3.8-2.1l-0.1,0
		c-0.3,0.4,0,1.6-0.2,2.2c-0.1-0.6,0.3-1.3-0.1-1.8c-0.2-0.1-0.3-0.1-0.5,0c-0.7,0.2-1.3,0.5-2,0.7l-0.1,0C74,69,73.8,69,73.5,69.1
		l-0.1,0c0.1-0.1,0.3-0.2,0.5-0.3c-0.2-0.1-0.4,0-0.7,0.1c-0.3,0.1-0.6,0.3-0.8,0.4c-0.6,0.2-1.3-0.2-1.6,0.6c-0.3,1,0,1.3-0.9,2
		l0,0L70,72c0,0,0.1,0,0.1,0c0.1,0,0.2,0,0.3,0.1c-2.1,0.3-4.1-2.1-5.9-3c0-0.3,0-0.5-0.2-0.7c-0.5-0.9-1.9-1.9-2.9-2.2
		c-0.3-0.1-0.7-0.2-1-0.3c-0.9-0.1-1.8-0.4-2.6-0.6c-0.7-0.1-1.4-0.2-2.1-0.3c0.1-0.2,0-0.5,0.1-0.8C56.5,64.3,57,64.3,57.5,64.3z"
		/>
	<path class="st5" d="M55.9,64.3c0.5,0,1,0,1.5,0c0,0,0.1,0,0.1,0c0.5,0.1,1.2,0.1,1.8,0.1c-0.4,0.1-0.8,0-1.1,0.4
		c0,0.2,0,0.2,0.1,0.5c0.5,0.3,1.7,0.2,2.1,0.7c-0.9-0.1-1.8-0.4-2.6-0.6c-0.7-0.1-1.4-0.2-2.1-0.3C55.9,64.9,55.9,64.6,55.9,64.3z"
		/>

		<linearGradient id="SVGID_00000034075143525150682170000014937995934217711260_" gradientUnits="userSpaceOnUse" x1="6560.29" y1="-3778.5759" x2="6548.1045" y2="-3898.3608" gradientTransform="matrix(5.333333e-02 0 0 -5.333333e-02 -266.96 -135.732)">
		<stop  offset="0" style="stop-color:#3052A7"/>
		<stop  offset="1" style="stop-color:#2671CE"/>
	</linearGradient>
	<path style="fill:url(#SVGID_00000034075143525150682170000014937995934217711260_);" d="M77,67.8c-0.1-0.4,0-0.8-0.2-1.2
		c-0.2-0.2-0.3-0.2-0.6-0.2c0,0,0.1,0,0.1,0c0.6-0.1,3.3,0.1,4.1,0.1l7.7,0c0.6,0,2.3-0.1,2.8,0c0.1,0,0.1,0,0.2,0.1
		c-0.7,0.5-1.8,1.3-1.9,2.2c0,0.2,0,0.3,0.1,0.4l0,0.1c-1.1,0.3-2,1.1-3,1.6c-0.8,0.4-1.6,0.7-2.4,1.1c-0.3,0.2-0.6,0.3-0.9,0.3
		l-0.1,0l-0.2,0.1c-0.2-0.1-0.4-0.1-0.5-0.3C82.1,72,81.4,70.5,81,70c-1-1.3-2.2-1.9-3.8-2.1L77,67.8c-0.2,0.4,0.1,1.7-0.1,2.2
		c-0.1-0.6,0.3-1.3-0.1-1.8c-0.2-0.1-0.3-0.1-0.5,0c-0.7,0.2-1.3,0.5-2,0.7C74.9,68.3,76.2,68,77,67.8z"/>
	<path class="st3" d="M82,69c1.7-0.1,3.4-0.2,5.1,0c0.6,0.1,1.8,0.4,2.3,0.3l0,0.1c-1.1,0.3-2,1.1-3,1.6c-0.8,0.4-1.6,0.7-2.4,1.1
		c-0.3,0.2-0.6,0.3-0.9,0.3l-0.1,0c-0.1-0.3-0.1-0.6-0.2-0.9C82.4,70.7,82.5,69.8,82,69z"/>
	<path class="st4" d="M82.8,71.5c0.1-0.1,0.1-0.1,0.3-0.1c0.3,0.2,0.6,0.4,0.9,0.6c-0.3,0.2-0.6,0.3-0.9,0.3l-0.1,0
		C82.9,72.1,82.9,71.8,82.8,71.5z"/>
	<path class="st5" d="M36.2,132.7c0.1-0.1,0.3-0.3,0.4-0.4c0.7,0.2,3.7,0.1,4.7,0.1l10.4,0c1.5,0,3,0,4.5,0c8.3,0.1,16.7,0,25,0
		l10.8,0c2.2,0,4.4,0.1,6.6,0c-0.1,3.2-0.2,6.5-0.1,9.7c3.5,0,6.9,0,10.4,0c1.5,0,3.2-0.1,4.7,0.1c1.3,0,2.6,0,3.8,0.1
		c-0.6,0.3-1.1,1.6-1.4,2.2v0.1l0.2,0.1c-2.1,0-4.3,0.1-6.4,0.3c-0.6,0-1.3-0.1-1.9-0.1c-0.9-0.1-1.8,0-2.7,0c-4.9,0-9.8,0.1-14.8,0
		l-37,0c-3.2,0-6.4,0-9.6,0c-2.6,0-5.1-0.2-7.7-0.1c0.3-0.8,0.1-1.9-0.1-2.6c-0.2-1.5-0.1-3-0.1-4.5C36,136,35.9,134.3,36.2,132.7z"
		/>
	<path class="st0" d="M36.2,132.7c0.1-0.1,0.3-0.3,0.4-0.4c0.7,0.2,3.7,0.1,4.7,0.1l10.4,0c1.5,0,3,0,4.5,0
		c-0.1,3.2-0.2,6.5-0.1,9.7l42.4,0c3.5,0,6.9,0,10.4,0c1.5,0,3.2-0.1,4.7,0.1c-2,0.1-4.1,0-6.1,0l-12.3,0l-39.4,0l-14.6,0
		c-1.7,0-3.4-0.1-5.2-0.1c-0.2-1.5-0.1-3-0.1-4.5C36,136,35.9,134.3,36.2,132.7z"/>
	<path class="st2" d="M56.2,132.4c8.3,0.1,16.7,0,25,0l10.8,0c2.2,0,4.4,0.1,6.6,0c-0.1,3.2-0.2,6.5-0.1,9.7l-42.4,0
		C56,138.9,56.1,135.6,56.2,132.4z"/>
	<path class="st1" d="M77.1,117.6L77.1,117.6c3.1,0.2,6,0.9,9,1.4c2.8,0.5,5.5,0.9,8.3,1.3c2.2,0.4,4.3,0.8,6.4,1.2
		c1.1,0.2,2.2,0.3,3.4,0.6c0.1-0.1,0.1-0.1,0.1-0.3c0.2,1.3,0.3,2.2,0.2,3.6c1.4,0.4,2.7,1.4,4,2.1l8.9,4.7c0.2,0.2,0.4,0.3,0.5,0.6
		c0.1,0.8,0.1,8.6-0.1,9.3c-0.1,0.1-0.2,0.2-0.4,0.2c-1.3-0.1-2.6-0.1-3.8-0.1c-1.5-0.2-3.2-0.1-4.7-0.1c-3.5,0-6.9,0-10.4,0
		c-0.1-3.2,0-6.5,0.1-9.7c-2.2,0.1-4.4,0-6.6,0l-10.8,0c-8.3,0-16.7,0.1-25,0c-1.5,0-3,0-4.5,0l-10.4,0c-0.9,0-4,0.1-4.7-0.1
		c0.5-0.4,1.2-0.7,1.9-1c1.2-0.6,2.5-1.2,3.7-1.9c1.7-0.9,3.5-1.9,5.2-2.8c0.5-0.3,1-0.7,1.6-0.9c0.2-0.1,0.4-0.2,0.6-0.2
		c0.1-0.4,0-0.9,0-1.3c0-0.7,0.1-1.4,0.2-2.2c0,0.1,0,0,0.1,0.2c3.4-0.3,6.8-1.2,10.2-1.8c2.1-0.4,4.3-0.6,6.4-1l6.4-1.1
		C74.2,117.9,75.7,117.6,77.1,117.6z"/>
	<path class="st2" d="M77.1,117.6L77.1,117.6c3.1,0.2,6,0.9,9,1.4c2.8,0.5,5.5,0.9,8.3,1.3c2.2,0.4,4.3,0.8,6.4,1.2
		c1.1,0.2,2.2,0.3,3.4,0.6c0.1-0.1,0.1-0.1,0.1-0.3c0.2,1.3,0.3,2.2,0.2,3.6c-3-0.2-6.1,0-9.2,0c-3.8,0-7.5-0.1-11.3-0.1l-4.3,0
		c-0.9,0-1.7,0.1-2.6,0C77.1,122.7,77.1,120.2,77.1,117.6z"/>
	<path class="st4" d="M117.4,132.2c0.2,0.2,0.4,0.3,0.5,0.6c0.1,0.8,0.1,8.6-0.1,9.3c-0.1,0.1-0.2,0.2-0.4,0.2
		c-1.3-0.1-2.6-0.1-3.8-0.1c-1.5-0.2-3.2-0.1-4.7-0.1c-3.5,0-6.9,0-10.4,0c-0.1-3.2,0-6.5,0.1-9.7c0.8,0.1,1.7,0,2.6,0l4.3,0
		c3.5,0,7,0.1,10.5,0C116.4,132.4,116.9,132.4,117.4,132.2z"/>

		<linearGradient id="SVGID_00000013875510610309604330000004556914784906519192_" gradientUnits="userSpaceOnUse" x1="6266.8086" y1="-4883.8882" x2="6272.6533" y2="-5013.4448" gradientTransform="matrix(5.333333e-02 0 0 -5.333333e-02 -266.96 -135.732)">
		<stop  offset="0" style="stop-color:#486DC9"/>
		<stop  offset="1" style="stop-color:#599BEA"/>
	</linearGradient>
	<path style="fill:url(#SVGID_00000013875510610309604330000004556914784906519192_);" d="M60.1,120.2c2.1-0.4,4.3-0.6,6.4-1
		l6.4-1.1c1.4-0.2,2.9-0.6,4.2-0.6c0,2.6,0,5.1,0.1,7.7c-0.8,0-1.6,0.1-2.4,0.2c-4,1-8,2.4-11.8,3.8c-1.4,0.5-3,0.9-4.3,1.5
		c-0.8,0.4-1.7,0.9-2.3,1.6l30.3,0l8.1,0c1.2,0,2.7-0.2,3.9,0c-2.2,0.1-4.4,0-6.6,0l-10.8,0c-8.3,0-16.7,0.1-25,0c-1.5,0-3,0-4.5,0
		l-10.4,0c-0.9,0-4,0.1-4.7-0.1c0.5-0.4,1.2-0.7,1.9-1c1.2-0.6,2.5-1.2,3.7-1.9c1.7-0.9,3.5-1.9,5.2-2.8c0.5-0.3,1-0.7,1.6-0.9
		c0.2-0.1,0.4-0.2,0.6-0.2c0.1-0.4,0-0.9,0-1.3c0-0.7,0.1-1.4,0.2-2.2c0,0.1,0,0,0.1,0.2C53.3,121.7,56.7,120.9,60.1,120.2z"/>
	<path class="st5" d="M60.1,120.2c2.1-0.4,4.3-0.6,6.4-1l6.4-1.1c1.4-0.2,2.9-0.6,4.2-0.6c0,2.6,0,5.1,0.1,7.7
		c-0.8,0-1.6,0.1-2.4,0.2c-7.1-0.3-14.3-0.2-21.4-0.1c-1.3,0-2.5,0.1-3.8,0.1c0.1-0.4,0-0.9,0-1.3c0-0.7,0.1-1.4,0.2-2.2
		c0,0.1,0,0,0.1,0.2C53.3,121.7,56.7,120.9,60.1,120.2z"/>
	<path class="st2" d="M74.3,68.8c0.7-0.1,1.3-0.5,2-0.7c0.2-0.1,0.4-0.1,0.5,0c0.3,0.5-0.1,1.2,0.1,1.8c0.1-0.6-0.2-1.8,0.2-2.2
		l0.1,0c1.6,0.2,2.8,0.9,3.8,2.1c0.3,0.5,1.1,2,1.3,2.2c0.1,0.1,0.4,0.2,0.5,0.3l0.2-0.1l0.1,0c0.4,2.2,1.1,4.4,1.6,6.5
		c0.6,2.6,1.2,5.2,1.8,7.7L92,110c0.6,2.3,1.2,4.6,1.8,6.9c0.2,0.8,0.3,1.6,0.4,2.4c0,0.4,0.1,0.8,0.1,1.1c-2.8-0.4-5.5-0.9-8.3-1.3
		c-3-0.5-5.9-1.2-8.9-1.4l0,0c-1.4,0-2.9,0.3-4.2,0.6l-6.4,1.1c-2.1,0.4-4.3,0.6-6.4,1c-3.4,0.6-6.7,1.5-10.2,1.8
		c-0.1-0.1-0.1-0.1-0.1-0.2c0.9-2.9,1.5-5.8,2.3-8.7l4.1-14.6l8.4-29.6c1.8,0.9,3.8,3.2,5.9,3C70.4,72,70.3,72,70.2,72
		c0,0-0.1,0-0.1,0l-0.1-0.1l0,0c0.9-0.7,0.6-1,0.9-2c0.3-0.8,1-0.4,1.6-0.6c0.3-0.1,0.6-0.3,0.8-0.4c0.2-0.1,0.4-0.2,0.7-0.1
		c-0.2,0.1-0.3,0.2-0.5,0.3l0.1,0C73.8,69,74,69,74.3,68.8L74.3,68.8z"/>
	<path class="st0" d="M49.8,121.9c0.9-2.9,1.5-5.8,2.3-8.7l4.1-14.6l8.4-29.6c1.8,0.9,3.8,3.2,5.9,3c0.7,0,1.6,0.1,2.3,0
		c0.6-0.1-1.8,0.4-1.3,0.4c-0.7,0.3-0.2,0.4-1,0.4c0,0-0.1,0-0.1,0c0,0,0,0-0.1,0c-0.3,1.4-0.5,2.8-0.8,4.1l-6.2,27l-2.4,10.3
		c-0.2,1-1.4,5.2-1.3,5.9c0.1,0,0.2,0.1,0.3,0.1c-3.4,0.6-6.7,1.5-10.2,1.8C49.8,122,49.9,122,49.8,121.9z"/>
	<path class="st4" d="M77.2,67.9c1.6,0.2,2.8,0.9,3.8,2.1c0.3,0.5,1.1,2,1.3,2.2c0.1,0.1,0.4,0.2,0.5,0.3l0.2-0.1l0.1,0
		c0.4,2.2,1.1,4.4,1.6,6.5c0.6,2.6,1.2,5.2,1.8,7.7L92,110c0.6,2.3,1.2,4.6,1.8,6.9c0.2,0.8,0.3,1.6,0.4,2.4c0,0.4,0.1,0.8,0.1,1.1
		c-2.8-0.4-5.5-0.9-8.3-1.3c-3-0.5-5.9-1.2-8.9-1.4l-0.1-48.8C77.1,68.4,77.1,68.1,77.2,67.9z"/>
	<path class="st9" d="M36.1,142.1c16,0.2,32.1,0,48.2,0l20.9,0c4.2,0,8.5,0.1,12.7,0c-0.1,3.8,0,9.2-0.7,11.5H36.6
		C36.1,150.7,36,145.9,36.1,142.1z"/>
	<path class="st10" d="M63,67.2l-7.4-2.2l-0.8-0.3L54,64.2l46.1-0.1l-6.5,3.1l-3.6,3.7l-6.6,2.3H69.9l-5.2-3.3L63,67.2z"/>
</g>
</svg>
