<svg xmlns="http://www.w3.org/2000/svg" height="1024" width="1024"><path d="M0 0h1024v1024H0z" fill="#0082c9"/><path d="M512.68 296.07c-93.35.01-171.736 63.93-195.686 149.918-20.904-45.993-66.916-78.588-120.378-78.594-72.773.008-132.608 59.85-132.617 132.627-.014 72.794 59.83 132.645 132.617 132.654 53.467-.007 99.45-32.622 120.35-78.62C340.91 640.06 419.32 703.99 512.684 704c92.84.007 170.84-63.23 195.277-148.5 21.243 45.148 66.55 77.166 119.395 77.172 72.803.013 132.656-59.846 132.644-132.654-.007-72.794-59.856-132.64-132.644-132.628-52.85.006-98.18 32.018-119.422 77.172-24.437-85.266-102.4-148.505-195.25-148.5zm0 77.856c70.106-.005 126.11 55.987 126.115 126.098.004 70.12-56 126.13-126.115 126.125-70.106-.007-126.094-56.014-126.088-126.125.007-70.102 55.99-126.09 126.088-126.098zm-316.08 71.324c30.712.004 54.764 24.058 54.767 54.77.005 30.72-24.05 54.795-54.767 54.798-30.718-.004-54.772-24.08-54.767-54.798.004-30.713 24.056-54.768 54.767-54.77zm630.754 0c30.718-.005 54.8 24.052 54.793 54.77.007 30.728-24.07 54.804-54.793 54.798-30.718-.004-54.772-24.08-54.77-54.798.004-30.713 24.057-54.768 54.77-54.77z" fill="#fff"/></svg>